<svg width="1200" height="1500" viewBox="0 0 1200 1500" fill="none" xmlns="http://www.w3.org/2000/svg">
  <rect width="1200" height="1500" fill="#111827"/>
  <rect x="68" y="68" width="1064" height="1364" rx="48" fill="url(#g)"/>
  <rect x="146" y="156" width="908" height="276" rx="36" fill="#0F172A" fill-opacity="0.68"/>
  <rect x="146" y="470" width="432" height="764" rx="36" fill="#E8D8B6" fill-opacity="0.18"/>
  <rect x="622" y="470" width="432" height="240" rx="36" fill="#0F172A" fill-opacity="0.68"/>
  <rect x="622" y="742" width="432" height="492" rx="36" fill="#0F172A" fill-opacity="0.58"/>
  <rect x="204" y="228" width="470" height="34" rx="17" fill="#F8FAFC" fill-opacity="0.8"/>
  <rect x="204" y="286" width="350" height="22" rx="11" fill="#F8FAFC" fill-opacity="0.3"/>
  <rect x="204" y="1028" width="316" height="26" rx="13" fill="#F8FAFC" fill-opacity="0.76"/>
  <rect x="204" y="1078" width="258" height="18" rx="9" fill="#F8FAFC" fill-opacity="0.24"/>
  <rect x="668" y="820" width="250" height="24" rx="12" fill="#F8FAFC" fill-opacity="0.66"/>
  <rect x="668" y="870" width="300" height="18" rx="9" fill="#F8FAFC" fill-opacity="0.22"/>
  <circle cx="876" cy="1110" r="124" fill="#C9A86F" fill-opacity="0.24"/>
  <defs>
    <linearGradient id="g" x1="122" y1="98" x2="1064" y2="1364" gradientUnits="userSpaceOnUse">
      <stop stop-color="#1E293B"/>
      <stop offset="1" stop-color="#111827"/>
    </linearGradient>
  </defs>
</svg>
