<svg width="1200" height="1500" viewBox="0 0 1200 1500" fill="none" xmlns="http://www.w3.org/2000/svg">
  <rect width="1200" height="1500" fill="#0F172A"/>
  <rect x="70" y="70" width="1060" height="1360" rx="48" fill="url(#g)"/>
  <circle cx="344" cy="456" r="186" fill="#C9A86F" fill-opacity="0.2"/>
  <circle cx="832" cy="408" r="142" fill="#F8FAFC" fill-opacity="0.12"/>
  <rect x="168" y="214" width="864" height="438" rx="42" fill="#111827" fill-opacity="0.58"/>
  <rect x="168" y="704" width="410" height="540" rx="36" fill="#111827" fill-opacity="0.62"/>
  <rect x="622" y="704" width="410" height="540" rx="36" fill="#E8D8B6" fill-opacity="0.16"/>
  <rect x="226" y="298" width="330" height="36" rx="18" fill="#F8FAFC" fill-opacity="0.82"/>
  <rect x="226" y="360" width="270" height="24" rx="12" fill="#F8FAFC" fill-opacity="0.32"/>
  <rect x="226" y="890" width="236" height="24" rx="12" fill="#F8FAFC" fill-opacity="0.72"/>
  <rect x="226" y="942" width="182" height="18" rx="9" fill="#F8FAFC" fill-opacity="0.24"/>
  <rect x="678" y="890" width="250" height="24" rx="12" fill="#F8FAFC" fill-opacity="0.72"/>
  <rect x="678" y="942" width="212" height="18" rx="9" fill="#F8FAFC" fill-opacity="0.24"/>
  <defs>
    <linearGradient id="g" x1="120" y1="100" x2="1060" y2="1380" gradientUnits="userSpaceOnUse">
      <stop stop-color="#1E293B"/>
      <stop offset="1" stop-color="#0F172A"/>
    </linearGradient>
  </defs>
</svg>
