<svg width="1200" height="900" viewBox="0 0 1200 900" fill="none" xmlns="http://www.w3.org/2000/svg">
  <rect width="1200" height="900" fill="#0F172A"/>
  <rect x="62" y="62" width="1076" height="776" rx="40" fill="url(#g)"/>
  <rect x="118" y="118" width="402" height="664" rx="32" fill="#E7D5B0" fill-opacity="0.18"/>
  <rect x="568" y="118" width="514" height="180" rx="30" fill="#111827" fill-opacity="0.62"/>
  <rect x="568" y="334" width="514" height="180" rx="30" fill="#111827" fill-opacity="0.52"/>
  <rect x="568" y="550" width="514" height="180" rx="30" fill="#111827" fill-opacity="0.62"/>
  <rect x="170" y="200" width="298" height="34" rx="17" fill="#F8FAFC" fill-opacity="0.8"/>
  <rect x="170" y="256" width="220" height="20" rx="10" fill="#F8FAFC" fill-opacity="0.32"/>
  <rect x="612" y="176" width="192" height="24" rx="12" fill="#F8FAFC" fill-opacity="0.66"/>
  <rect x="612" y="390" width="254" height="24" rx="12" fill="#F8FAFC" fill-opacity="0.66"/>
  <rect x="612" y="608" width="224" height="24" rx="12" fill="#F8FAFC" fill-opacity="0.66"/>
  <circle cx="358" cy="612" r="106" fill="#C9A86F" fill-opacity="0.22"/>
  <defs>
    <linearGradient id="g" x1="120" y1="94" x2="1082" y2="804" gradientUnits="userSpaceOnUse">
      <stop stop-color="#1F2937"/>
      <stop offset="1" stop-color="#111827"/>
    </linearGradient>
  </defs>
</svg>
